<svg width="200" height="34" viewBox="0 0 200 34" fill="none" xmlns="http://www.w3.org/2000/svg">
<g clip-path="url(#clip0_262_403)">
<path d="M18.5254 21.8574C16.9804 21.5696 15.5568 21.6169 14.3001 21.6603C13.9283 21.6721 13.5764 21.6859 13.2364 21.6879H13.1071C11.5622 21.7529 10.067 20.9468 9.38495 19.6931L9.37899 19.6813C8.95547 18.9066 8.85009 17.8481 9.08471 16.6931L9.09465 16.6438C9.49829 14.5307 10.7629 12.5655 12.6598 11.1088C14.5745 9.63839 16.885 8.84599 19.1756 8.88147H19.2253C22.6452 8.8933 25.7451 10.4801 27.7314 13.2377C29.7417 16.0288 30.2547 19.498 29.1352 22.7602L29.1153 22.8174C28.7972 23.7911 28.3777 24.5776 27.8368 25.2202L28.6282 26.3457C28.662 26.3082 28.6978 26.2727 28.7316 26.2353C29.4514 25.4291 29.9962 24.4455 30.3919 23.2313L30.4078 23.184C31.6664 19.5157 31.0878 15.607 28.823 12.463C26.5822 9.35257 23.0847 7.56082 19.2313 7.54899H19.1895C16.6046 7.51154 13.988 8.39855 11.8346 10.0543C9.67923 11.71 8.23569 13.963 7.7724 16.3915L7.76445 16.4329C7.46819 17.8895 7.62129 19.2693 8.19592 20.318L8.20189 20.3278C9.1205 22.0151 11.1089 23.0973 13.1509 23.0224H13.2523C13.6003 23.0184 13.9621 23.0066 14.3479 22.9928C15.5329 22.9534 16.8751 22.9061 18.2749 23.1682C21.3687 23.7458 24.23 25.6144 26.1209 28.2912L29.7337 33.4299C30.1572 34.0331 30.9963 34.1809 31.6047 33.7611L27.2224 27.5284C25.1307 24.5677 21.9613 22.5 18.5234 21.8594L18.5254 21.8574Z" fill="black"/>
<path d="M38.4308 16.301C37.9576 13.3581 36.7785 10.5138 35.0208 8.0755C33.275 5.65298 30.9646 3.63848 28.3379 2.24884C25.5423 0.772464 22.4942 0.0155504 19.281 -0.000218626C14.9762 -0.0593525 10.6755 1.39534 7.17198 4.0879C3.55319 6.87114 1.11149 10.7345 0.300249 14.9626C-0.35193 18.1894 0.0656234 21.286 1.50718 23.9155C2.59878 25.9182 4.24911 27.5995 6.2812 28.7783C8.42265 30.0201 10.8763 30.6449 13.3637 30.5661C13.7972 30.5621 14.2107 30.5483 14.6144 30.5345C15.4793 30.505 16.2985 30.4774 16.8672 30.5838C18.0085 30.7967 18.939 31.2777 19.6847 32.3342L20.4541 33.4301C20.8777 34.0333 21.7167 34.1811 22.3252 33.7613L20.9811 31.8513C20.0366 30.5148 18.5931 29.5529 17.1157 29.277C16.3999 29.1429 15.5091 29.1745 14.5627 29.206C14.169 29.2198 13.7634 29.2336 13.3438 29.2375H13.3279C13.2046 29.2415 13.0794 29.2434 12.9561 29.2434C8.69108 29.2434 4.6607 26.9057 2.68825 23.2847C1.39782 20.9312 1.02798 18.144 1.61852 15.2208C2.37211 11.3042 4.63684 7.72661 7.99715 5.14443C11.262 2.63321 15.2606 1.28102 19.2711 1.33424C22.2675 1.34606 25.1069 2.04976 27.7076 3.42757C30.1533 4.72063 32.3027 6.59715 33.9292 8.85212C35.5656 11.1229 36.6632 13.7721 37.1046 16.5139C37.5738 19.4213 37.3213 22.3307 36.353 25.1672C35.504 27.7572 34.126 29.89 32.259 31.5102L33.0304 32.6082C35.1381 30.8164 36.685 28.4511 37.6255 25.585C38.6615 22.5495 38.9319 19.4253 38.4288 16.303L38.4308 16.301Z" fill="black"/>
<path d="M17.8196 25.5669C16.6882 25.356 15.5409 25.3954 14.4314 25.4329C14.0477 25.4467 13.652 25.4605 13.2683 25.4625H13.2484C10.2877 25.5669 7.38672 23.9723 6.03464 21.4847C4.94503 19.4978 5.06234 17.3789 5.35463 15.9419C6.53173 9.76833 12.628 5.01003 19.2373 5.10661C23.898 5.12041 28.1232 7.28471 30.8313 11.0437C33.5633 14.8361 34.2592 19.5471 32.7401 23.9782C32.1576 25.766 31.2568 27.2463 30.0638 28.3837L30.8413 29.4875C32.2709 28.1787 33.3406 26.4618 34.0147 24.3961C35.671 19.5629 34.9094 14.4123 31.9229 10.267C28.9603 6.15526 24.3394 3.78793 19.2472 3.77216C12.0096 3.66375 5.32679 8.90104 4.03436 15.6837C3.55318 18.0412 3.83752 20.2666 4.85157 22.1155C6.46412 25.0801 9.77472 26.9132 13.2861 26.791C13.6838 26.789 14.0875 26.7752 14.4772 26.7614C15.5608 26.724 16.5848 26.6885 17.571 26.8738C19.6966 27.27 21.677 28.5749 23.0032 30.4534L25.0949 33.4278C25.5185 34.031 26.3575 34.1788 26.966 33.7589L24.1047 29.6905C22.5797 27.5302 20.2891 26.0262 17.8196 25.565V25.5669Z" fill="black"/>
<path d="M64.506 18.0654C64.506 21.9662 61.4737 24.9978 57.7794 24.9978C55.5186 24.9978 53.8166 23.9965 52.7548 22.388V24.6548H50.4424V6.20508H52.7548V13.7446C53.8186 12.1362 55.5206 11.1349 57.7794 11.1349C61.4757 11.1349 64.506 14.1665 64.506 18.0673V18.0654ZM62.1935 18.0654C62.1935 15.3767 60.1455 13.3465 57.4871 13.3465C54.8287 13.3465 52.7548 15.3767 52.7548 18.0654C52.7548 20.754 54.8028 22.7842 57.4871 22.7842C60.1714 22.7842 62.1935 20.754 62.1935 18.0654Z" fill="black"/>
<path d="M73.7316 11.2393V13.6381C71.7373 13.5593 69.5839 14.5606 69.5839 17.6711V24.6567H67.2715V11.4758H69.5839V13.6894C70.4349 11.8444 72.0574 11.2373 73.7316 11.2373V11.2393Z" fill="black"/>
<path d="M88.5968 11.4758V24.6548H86.2843V22.388C85.2206 23.9964 83.5185 24.9977 81.2598 24.9977C77.5634 24.9977 74.5332 21.9661 74.5332 18.0653C74.5332 14.1644 77.5654 11.1328 81.2598 11.1328C83.5205 11.1328 85.2226 12.1341 86.2843 13.7426V11.4758H88.5968ZM86.2843 18.0653C86.2843 15.3767 84.2363 13.3464 81.5521 13.3464C78.8678 13.3464 76.8457 15.3767 76.8457 18.0653C76.8457 20.7539 78.8936 22.7842 81.5521 22.7842C84.2105 22.7842 86.2843 20.7539 86.2843 18.0653Z" fill="black"/>
<path d="M91.709 7.54936C91.709 6.70572 92.4009 5.99414 93.2778 5.99414C94.1546 5.99414 94.8207 6.70572 94.8207 7.54936C94.8207 8.393 94.1288 9.07896 93.2778 9.07896C92.4268 9.07896 91.709 8.393 91.709 7.54936ZM92.1086 11.4778H94.4211V24.6568H92.1086V11.4759V11.4778Z" fill="black"/>
<path d="M109.735 16.5633V24.6548H107.422V16.6934C107.422 14.531 106.172 13.3188 104.126 13.3188C102.08 13.3188 100.27 14.5586 100.27 17.6671V24.6528H97.9579V11.4758H100.27V13.374C101.255 11.8188 102.716 11.1328 104.577 11.1328C107.689 11.1328 109.735 13.1887 109.735 16.5633Z" fill="black"/>
<path d="M112.688 23.2315C112.688 22.2834 113.459 21.5186 114.415 21.5186C115.372 21.5186 116.143 22.2834 116.143 23.2315C116.143 24.1796 115.4 24.9444 114.415 24.9444C113.431 24.9444 112.688 24.1796 112.688 23.2315Z" fill="black"/>
<path d="M128.853 21.0436C128.853 23.4957 126.725 24.9977 123.88 24.9977C121.222 24.9977 119.361 23.7323 118.589 21.9129L120.583 20.7795C121.009 22.045 122.232 22.8354 123.88 22.8354C125.29 22.8354 126.513 22.3347 126.513 21.0436C126.513 18.223 119.068 19.8314 119.068 15.0593C119.068 12.7393 121.088 11.1328 123.775 11.1328C125.956 11.1328 127.71 12.1598 128.561 13.8747L126.62 14.9548C126.115 13.7682 124.946 13.2675 123.775 13.2675C122.604 13.2675 121.409 13.8471 121.409 15.0337C121.409 17.8544 128.853 16.1927 128.853 21.0436Z" fill="black"/>
<path d="M145.658 18.0653C145.658 21.9661 142.626 24.9977 138.932 24.9977C136.671 24.9977 134.969 23.9964 133.907 22.388V29.9275H131.595V11.4758H133.907V13.7426C134.971 12.1341 136.673 11.1328 138.932 11.1328C142.628 11.1328 145.658 14.1644 145.658 18.0653ZM143.346 18.0653C143.346 15.3767 141.298 13.3464 138.64 13.3464C135.981 13.3464 133.907 15.3767 133.907 18.0653C133.907 20.7539 135.955 22.7842 138.64 22.7842C141.324 22.7842 143.346 20.7539 143.346 18.0653Z" fill="black"/>
<path d="M161.746 11.4758V24.6548H159.434V22.388C158.37 23.9964 156.668 24.9977 154.409 24.9977C150.713 24.9977 147.683 21.9661 147.683 18.0653C147.683 14.1644 150.715 11.1328 154.409 11.1328C156.67 11.1328 158.372 12.1341 159.434 13.7426V11.4758H161.746ZM159.434 18.0653C159.434 15.3767 157.386 13.3464 154.701 13.3464C152.017 13.3464 149.995 15.3767 149.995 18.0653C149.995 20.7539 152.043 22.7842 154.701 22.7842C157.36 22.7842 159.434 20.7539 159.434 18.0653Z" fill="black"/>
<path d="M164.512 18.0653C164.512 14.1644 167.491 11.1328 171.505 11.1328C174.138 11.1328 176.37 12.5027 177.381 14.5862L175.44 15.694C174.776 14.2965 173.287 13.374 171.505 13.374C168.847 13.374 166.824 15.4042 166.824 18.0653C166.824 20.7263 168.845 22.7309 171.505 22.7309C173.312 22.7309 174.776 21.8084 175.519 20.4385L177.488 21.5719C176.37 23.6278 174.112 24.9977 171.505 24.9977C167.491 24.9977 164.512 21.9661 164.512 18.0653Z" fill="black"/>
<path d="M186.022 22.8374C187.857 22.8374 189.185 21.9937 189.851 20.9135L191.82 22.0213C190.651 23.8131 188.629 24.9997 185.97 24.9997C181.689 24.9997 178.844 22.0213 178.844 18.0672C178.844 14.1131 181.663 11.1348 185.811 11.1348C189.959 11.1348 192.432 14.4029 192.432 18.0929C192.432 18.4358 192.407 18.7788 192.353 19.1218H181.212C181.663 21.495 183.552 22.8393 186.026 22.8393L186.022 22.8374ZM181.208 17.1171H190.09C189.69 14.5074 187.803 13.2951 185.809 13.2951C183.31 13.2951 181.582 14.8247 181.21 17.1171H181.208Z" fill="black"/>
<path d="M196.403 10.7814H195.534V13.1941H194.807V10.7814H193.924V10.1211H196.403V10.7814ZM200 10.1211V13.1941H199.286V11.288L198.418 12.6402H198.34L197.471 11.288V13.1941H196.757V10.1211H197.471L198.386 11.5344L199.284 10.1211H199.998H200Z" fill="black"/>
</g>
<defs>
<clipPath id="clip0_262_403">
<rect width="200" height="34" fill="white"/>
</clipPath>
</defs>
</svg>
