<svg width="200" height="34" viewBox="0 0 200 34" fill="none" xmlns="http://www.w3.org/2000/svg">
<g clip-path="url(#clip0_127_3923)">
<path d="M18.5255 21.8579C16.9805 21.5701 15.5568 21.6174 14.3002 21.6608C13.9284 21.6726 13.5765 21.6864 13.2364 21.6884H13.1072C11.5623 21.7534 10.067 20.9472 9.38501 19.6936L9.37905 19.6818C8.95553 18.9071 8.85015 17.8486 9.08477 16.6935L9.09472 16.6443C9.49835 14.5312 10.7629 12.566 12.6598 11.1093C14.5746 9.63888 16.8851 8.84648 19.1756 8.88196H19.2254C22.6453 8.89379 25.7451 10.4805 27.7315 13.2382C29.7417 16.0293 30.2547 19.4985 29.1353 22.7607L29.1154 22.8178C28.7973 23.7916 28.3777 24.5781 27.8369 25.2206L28.6282 26.3462C28.662 26.3087 28.6978 26.2732 28.7316 26.2358C29.4514 25.4296 29.9962 24.446 30.3919 23.2318L30.4078 23.1845C31.6664 19.5162 31.0878 15.6075 28.8231 12.4635C26.5822 9.35306 23.0847 7.56131 19.2313 7.54948H19.1896C16.6047 7.51203 13.988 8.39904 11.8347 10.0548C9.67929 11.7105 8.23575 13.9635 7.77246 16.392L7.76451 16.4334C7.46825 17.89 7.62135 19.2698 8.19598 20.3185L8.20195 20.3283C9.12056 22.0156 11.1089 23.0977 13.1509 23.0228H13.2524C13.6003 23.0189 13.9622 23.0071 14.3479 22.9933C15.533 22.9538 16.8751 22.9065 18.2749 23.1687C21.3688 23.7462 24.23 25.6149 26.1209 28.2917L29.7338 33.4304C30.1573 34.0336 30.9964 34.1814 31.6048 33.7615L27.2225 27.5288C25.1307 24.5682 21.9613 22.5005 18.5235 21.8599L18.5255 21.8579Z" fill="white"/>
<path d="M38.4308 16.301C37.9576 13.3581 36.7785 10.5138 35.0208 8.0755C33.275 5.65298 30.9646 3.63848 28.3379 2.24884C25.5423 0.772464 22.4942 0.0155504 19.281 -0.000218626C14.9762 -0.0593525 10.6755 1.39534 7.17198 4.0879C3.55319 6.87114 1.11149 10.7345 0.300249 14.9626C-0.35193 18.1894 0.0656234 21.286 1.50718 23.9155C2.59878 25.9182 4.24911 27.5995 6.2812 28.7783C8.42265 30.0201 10.8763 30.6449 13.3637 30.5661C13.7972 30.5621 14.2107 30.5483 14.6144 30.5345C15.4793 30.505 16.2985 30.4774 16.8672 30.5838C18.0085 30.7967 18.939 31.2777 19.6847 32.3342L20.4541 33.4301C20.8777 34.0333 21.7167 34.1811 22.3252 33.7613L20.9811 31.8513C20.0366 30.5148 18.5931 29.5529 17.1157 29.277C16.3999 29.1429 15.5091 29.1745 14.5627 29.206C14.169 29.2198 13.7634 29.2336 13.3438 29.2375H13.3279C13.2046 29.2415 13.0794 29.2434 12.9561 29.2434C8.69108 29.2434 4.6607 26.9057 2.68825 23.2847C1.39782 20.9312 1.02798 18.144 1.61852 15.2208C2.37211 11.3042 4.63684 7.72661 7.99715 5.14443C11.262 2.63321 15.2606 1.28102 19.2711 1.33424C22.2675 1.34606 25.1069 2.04976 27.7076 3.42757C30.1533 4.72063 32.3027 6.59715 33.9292 8.85212C35.5656 11.1229 36.6632 13.7721 37.1046 16.5139C37.5738 19.4213 37.3213 22.3307 36.353 25.1672C35.504 27.7572 34.126 29.89 32.259 31.5102L33.0304 32.6082C35.1381 30.8164 36.685 28.4511 37.6255 25.585C38.6615 22.5495 38.9319 19.4253 38.4288 16.303L38.4308 16.301Z" fill="white"/>
<path d="M17.8196 25.5674C16.6882 25.3565 15.5409 25.3959 14.4314 25.4334C14.0477 25.4472 13.652 25.461 13.2683 25.4629H13.2484C10.2877 25.5674 7.38672 23.9728 6.03464 21.4852C4.94503 19.4983 5.06234 17.3793 5.35463 15.9424C6.53173 9.76882 12.628 5.01052 19.2373 5.1071C23.898 5.1209 28.1232 7.2852 30.8313 11.0441C33.5633 14.8366 34.2592 19.5476 32.7401 23.9787C32.1576 25.7665 31.2568 27.2468 30.0638 28.3842L30.8413 29.488C32.2709 28.1792 33.3406 26.4623 34.0147 24.3966C35.671 19.5634 34.9094 14.4128 31.9229 10.2675C28.9603 6.15574 24.3394 3.78842 19.2472 3.77265C12.0096 3.66424 5.32679 8.90153 4.03436 15.6842C3.55318 18.0416 3.83752 20.2671 4.85157 22.116C6.46412 25.0805 9.77472 26.9137 13.2861 26.7915C13.6838 26.7895 14.0875 26.7757 14.4772 26.7619C15.5608 26.7245 16.5848 26.689 17.571 26.8743C19.6966 27.2705 21.677 28.5754 23.0032 30.4538L25.0949 33.4283C25.5185 34.0314 26.3575 34.1793 26.966 33.7594L24.1047 29.691C22.5797 27.5307 20.2891 26.0267 17.8196 25.5654V25.5674Z" fill="white"/>
<path d="M64.506 18.0654C64.506 21.9662 61.4737 24.9978 57.7794 24.9978C55.5186 24.9978 53.8166 23.9965 52.7548 22.388V24.6548H50.4424V6.20508H52.7548V13.7446C53.8186 12.1362 55.5206 11.1349 57.7794 11.1349C61.4757 11.1349 64.506 14.1665 64.506 18.0673V18.0654ZM62.1935 18.0654C62.1935 15.3767 60.1455 13.3465 57.4871 13.3465C54.8287 13.3465 52.7548 15.3767 52.7548 18.0654C52.7548 20.754 54.8028 22.7842 57.4871 22.7842C60.1714 22.7842 62.1935 20.754 62.1935 18.0654Z" fill="white"/>
<path d="M73.7319 11.2393V13.6381C71.7376 13.5593 69.5842 14.5606 69.5842 17.6711V24.6567H67.2718V11.4758H69.5842V13.6894C70.4353 11.8444 72.0577 11.2373 73.7319 11.2373V11.2393Z" fill="white"/>
<path d="M88.5968 11.4758V24.6548H86.2843V22.388C85.2206 23.9964 83.5185 24.9977 81.2598 24.9977C77.5634 24.9977 74.5332 21.9661 74.5332 18.0653C74.5332 14.1644 77.5654 11.1328 81.2598 11.1328C83.5205 11.1328 85.2226 12.1341 86.2843 13.7426V11.4758H88.5968ZM86.2843 18.0653C86.2843 15.3767 84.2363 13.3464 81.5521 13.3464C78.8678 13.3464 76.8457 15.3767 76.8457 18.0653C76.8457 20.7539 78.8936 22.7842 81.5521 22.7842C84.2105 22.7842 86.2843 20.7539 86.2843 18.0653Z" fill="white"/>
<path d="M91.7086 7.54936C91.7086 6.70572 92.4005 5.99414 93.2774 5.99414C94.1542 5.99414 94.8203 6.70572 94.8203 7.54936C94.8203 8.393 94.1284 9.07896 93.2774 9.07896C92.4263 9.07896 91.7086 8.393 91.7086 7.54936ZM92.1082 11.4778H94.4207V24.6568H92.1082V11.4759V11.4778Z" fill="white"/>
<path d="M109.735 16.5633V24.6548H107.422V16.6934C107.422 14.531 106.172 13.3188 104.126 13.3188C102.08 13.3188 100.27 14.5586 100.27 17.6671V24.6528H97.9579V11.4758H100.27V13.374C101.255 11.8188 102.716 11.1328 104.577 11.1328C107.689 11.1328 109.735 13.1887 109.735 16.5633Z" fill="white"/>
<path d="M112.688 23.2315C112.688 22.2834 113.459 21.5186 114.415 21.5186C115.372 21.5186 116.143 22.2834 116.143 23.2315C116.143 24.1796 115.4 24.9444 114.415 24.9444C113.431 24.9444 112.688 24.1796 112.688 23.2315Z" fill="white"/>
<path d="M128.853 21.0436C128.853 23.4957 126.725 24.9977 123.88 24.9977C121.222 24.9977 119.361 23.7323 118.589 21.9129L120.583 20.7795C121.009 22.045 122.232 22.8354 123.88 22.8354C125.29 22.8354 126.513 22.3347 126.513 21.0436C126.513 18.223 119.068 19.8314 119.068 15.0593C119.068 12.7393 121.088 11.1328 123.775 11.1328C125.956 11.1328 127.71 12.1598 128.561 13.8747L126.62 14.9548C126.115 13.7682 124.946 13.2675 123.775 13.2675C122.604 13.2675 121.409 13.8471 121.409 15.0337C121.409 17.8544 128.853 16.1927 128.853 21.0436Z" fill="white"/>
<path d="M145.658 18.0653C145.658 21.9661 142.626 24.9977 138.932 24.9977C136.671 24.9977 134.969 23.9964 133.907 22.388V29.9275H131.595V11.4758H133.907V13.7426C134.971 12.1341 136.673 11.1328 138.932 11.1328C142.628 11.1328 145.658 14.1644 145.658 18.0653ZM143.346 18.0653C143.346 15.3767 141.298 13.3464 138.64 13.3464C135.981 13.3464 133.907 15.3767 133.907 18.0653C133.907 20.7539 135.955 22.7842 138.64 22.7842C141.324 22.7842 143.346 20.7539 143.346 18.0653Z" fill="white"/>
<path d="M161.746 11.4758V24.6548H159.434V22.388C158.37 23.9964 156.668 24.9977 154.409 24.9977C150.713 24.9977 147.683 21.9661 147.683 18.0653C147.683 14.1644 150.715 11.1328 154.409 11.1328C156.67 11.1328 158.372 12.1341 159.434 13.7426V11.4758H161.746ZM159.434 18.0653C159.434 15.3767 157.386 13.3464 154.701 13.3464C152.017 13.3464 149.995 15.3767 149.995 18.0653C149.995 20.7539 152.043 22.7842 154.701 22.7842C157.36 22.7842 159.434 20.7539 159.434 18.0653Z" fill="white"/>
<path d="M164.512 18.0653C164.512 14.1644 167.491 11.1328 171.505 11.1328C174.138 11.1328 176.37 12.5027 177.381 14.5862L175.44 15.694C174.776 14.2965 173.287 13.374 171.505 13.374C168.847 13.374 166.824 15.4042 166.824 18.0653C166.824 20.7263 168.845 22.7309 171.505 22.7309C173.312 22.7309 174.776 21.8084 175.519 20.4385L177.488 21.5719C176.37 23.6278 174.112 24.9977 171.505 24.9977C167.491 24.9977 164.512 21.9661 164.512 18.0653Z" fill="white"/>
<path d="M186.022 22.8374C187.857 22.8374 189.185 21.9937 189.851 20.9135L191.82 22.0213C190.651 23.8131 188.629 24.9997 185.97 24.9997C181.689 24.9997 178.844 22.0213 178.844 18.0672C178.844 14.1131 181.663 11.1348 185.811 11.1348C189.959 11.1348 192.432 14.4029 192.432 18.0929C192.432 18.4358 192.407 18.7788 192.353 19.1218H181.212C181.663 21.495 183.552 22.8393 186.026 22.8393L186.022 22.8374ZM181.208 17.1171H190.09C189.69 14.5074 187.803 13.2951 185.809 13.2951C183.31 13.2951 181.582 14.8247 181.21 17.1171H181.208Z" fill="white"/>
<path d="M196.403 10.7819H195.534V13.1946H194.807V10.7819H193.924V10.1216H196.403V10.7819ZM200 10.1216V13.1946H199.286V11.2885L198.418 12.6407H198.34L197.471 11.2885V13.1946H196.757V10.1216H197.471L198.386 11.5349L199.284 10.1216H199.998H200Z" fill="white"/>
</g>
<defs>
<clipPath id="clip0_127_3923">
<rect width="200" height="34" fill="white"/>
</clipPath>
</defs>
</svg>
