<svg width="86" height="86" viewBox="0 0 86 86" fill="none" xmlns="http://www.w3.org/2000/svg">
<path d="M65 43C65 48.085 56.8164 50.1507 53.4836 53.4836C50.1507 56.8164 48.085 65 43 65C37.915 65 35.8493 56.8164 32.5164 53.4836C29.1836 50.1507 21 48.085 21 43C21 37.915 29.1836 35.8493 32.5164 32.5164C35.8493 29.1836 37.915 21 43 21C48.085 21 50.1507 29.1836 53.4836 32.5164C56.8164 35.8493 65 37.915 65 43Z" stroke="white" stroke-width="3" stroke-linecap="round" stroke-linejoin="round"/>
<path d="M79 43C79 47.5979 74.072 51.1839 72.412 55.1806C70.693 59.3255 71.578 65.3291 68.454 68.454C65.3291 71.578 59.3255 70.693 55.1806 72.412C51.1839 74.072 47.5979 79 43 79C38.4021 79 34.8161 74.072 30.8194 72.412C26.6745 70.693 20.6709 71.578 17.5464 68.454C14.4219 65.3291 15.3067 59.3255 13.5878 55.1806C11.9281 51.1839 7 47.5979 7 43C7 38.4021 11.9281 34.8161 13.5878 30.8194C15.3067 26.6745 14.4219 20.6709 17.5464 17.5464C20.6709 14.4219 26.6745 15.3067 30.8194 13.5878C34.8161 11.9281 38.4021 7 43 7C47.5979 7 51.1839 11.9281 55.1806 13.5878C59.3255 15.3067 65.3291 14.4219 68.454 17.5464C71.578 20.6709 70.693 26.6745 72.412 30.8194C74.072 34.8161 79 38.4021 79 43Z" stroke="white" stroke-width="3" stroke-linecap="round" stroke-linejoin="round"/>
</svg>
